<svg width="152" height="32" viewBox="0 0 152 32" fill="none" xmlns="http://www.w3.org/2000/svg">
    <path d="M27.2571 8.27575C23.3771 2.57402 15.2059 0.000306849 10.2398 0.000306849C7.1403 -0.0136016 4.05716 0.445386 1.09917 1.36107L0 1.74365V32H3.2975V4.11086C5.56788 3.53851 7.90122 3.24645 10.2442 3.24136C14.2386 3.24136 21.0358 5.32381 24.3026 9.76259L21.0051 11.4255L22.5087 14.347L31.5219 9.78216V32H34.8194V4.44779L27.2571 8.27575Z" fill="#323232"/>
    <path d="M56.2332 18.8689C56.8805 17.9879 57.2286 16.9243 57.2271 15.8328V13.3602C57.2253 11.9918 56.6786 10.68 55.7067 9.7124C54.7348 8.74482 53.4172 8.20046 52.0427 8.19873H45.5332V31.5924H53.381C54.7555 31.5906 56.0731 31.0463 57.045 30.0787C58.0169 29.1111 58.5637 27.7993 58.5654 26.4309V23.1872C58.5664 22.3314 58.3538 21.4888 57.9467 20.7351C57.5396 19.9813 56.9508 19.3401 56.2332 18.8689ZM48.5258 11.1672H52.0361C52.6171 11.17 53.1735 11.4011 53.5843 11.8101C53.9952 12.2191 54.2272 12.773 54.2301 13.3514V15.824C54.2272 16.4025 53.9952 16.9564 53.5843 17.3654C53.1735 17.7744 52.6171 18.0055 52.0361 18.0083H48.5258V11.1672ZM55.597 26.4309C55.597 27.0102 55.3658 27.5658 54.9544 27.9754C54.5429 28.3851 53.9849 28.6152 53.403 28.6152H48.5148V20.9942H53.381C53.9629 20.9942 54.521 21.2244 54.9324 21.634C55.3439 22.0436 55.575 22.5992 55.575 23.1785L55.597 26.4309Z" fill="#323232"/>
    <path d="M65.7854 8.19873L61.5312 31.5924H64.5699L65.3663 27.2238H72.1303L73.0079 31.5924H76.0466L71.3712 8.19873H65.7854ZM65.8973 24.2466L68.236 11.379H68.9579L71.5248 24.2466H65.8973Z" fill="#323232"/>
    <path d="M90.179 8.19873L82.4826 19.7383V8.19873H79.501V31.5923H82.4826V24.6573L84.5976 21.466L89.6437 31.5923H92.972L86.4998 18.6003L93.3625 8.24897L90.179 8.19873Z" fill="#323232"/>
    <path d="M105.994 25.6052C105.972 26.4679 105.612 27.2877 104.992 27.89C104.371 28.4923 103.538 28.8294 102.672 28.8294C101.805 28.8294 100.972 28.4923 100.352 27.89C99.731 27.2877 99.3712 26.4679 99.3489 25.6052V8.19873H96.3673V25.6052C96.3517 26.4393 96.5032 27.2682 96.813 28.0433C97.1228 28.8184 97.5847 29.5243 98.1717 30.1197C98.7586 30.7151 99.4589 31.188 100.232 31.5108C101.004 31.8337 101.834 32 102.672 32C103.51 32 104.339 31.8337 105.112 31.5108C105.884 31.188 106.585 30.7151 107.172 30.1197C107.759 29.5243 108.221 28.8184 108.53 28.0433C108.84 27.2682 108.992 26.4393 108.976 25.6052V8.19873H105.994V25.6052Z" fill="#323232"/>
    <path d="M152 14.306V13.8211C151.999 12.2776 151.383 10.7977 150.287 9.70624C149.19 8.61482 147.704 8.00116 146.153 8C142.248 8 139.436 10.3459 139.436 13.8211C139.436 17.8074 142.454 19.4806 144.881 20.8261C147.402 22.224 148.946 23.2004 148.946 25.5376C148.946 28.5191 146.476 28.7506 145.719 28.7506C144.864 28.7495 144.043 28.4106 143.438 27.8083C142.833 27.206 142.493 26.3894 142.492 25.5376V24.5175H139.436V25.5376C139.438 27.196 140.101 28.7858 141.279 29.9585C142.456 31.1312 144.053 31.791 145.719 31.7933C149.418 31.7933 152 29.2203 152 25.5376C152 21.2935 148.876 19.5614 146.366 18.17C143.892 16.7961 142.492 15.918 142.492 13.8211C142.492 12.919 143.178 11.0405 146.153 11.0405C146.894 11.0411 147.604 11.3342 148.128 11.8556C148.651 12.3769 148.946 13.0838 148.946 13.8211V14.306H152Z" fill="#323232"/>
    <path d="M114.336 28.6809H111.411V31.5926H114.336V28.6809Z" fill="#323232"/>
    <path d="M130.725 27.1824L126.712 8.18359L124.687 8.21418L121.289 28.7027H121.221L118.081 8.19889H115.064L118.658 31.6711H123.84L125.925 17.3161L128.582 31.6711H133.086L136.5 8.19889H133.487L130.725 27.1824Z" fill="#323232"/>
</svg>